<?xml version="1.0" encoding="utf-8"?>
<svg version="1.1" xmlns:xlink="http://www.w3.org/1999/xlink" width="98px" height="29px" xmlns="http://www.w3.org/2000/svg">
  <defs>
    <mask fill="white" id="clip2">
      <path d="M 14.988235294117649 29  C 6.594823529411796 29  0 22.61999999999997  0 14.5  C 0 6.380000000000031  6.594823529411796 0  14.988235294117649 0  L 79.78352941176554 0  L 83.01176470588236 0  C 91.4051764705882 0  98 6.380000000000031  98 14.5  C 98 22.61999999999997  91.4051764705882 29  83.01176470588236 29  L 14.988235294117649 29  Z " fill-rule="evenodd" />
    </mask>
  </defs>
  <g transform="matrix(1 0 0 1 -794 -496 )">
    <path d="M 14.988235294117649 29  C 6.594823529411796 29  0 22.61999999999997  0 14.5  C 0 6.380000000000031  6.594823529411796 0  14.988235294117649 0  L 79.78352941176554 0  L 83.01176470588236 0  C 91.4051764705882 0  98 6.380000000000031  98 14.5  C 98 22.61999999999997  91.4051764705882 29  83.01176470588236 29  L 14.988235294117649 29  Z " fill-rule="nonzero" fill="#ffff00" stroke="none" fill-opacity="0.996078431372549" transform="matrix(1 0 0 1 794 496 )" />
    <path d="M 14.988235294117649 29  C 6.594823529411796 29  0 22.61999999999997  0 14.5  C 0 6.380000000000031  6.594823529411796 0  14.988235294117649 0  L 79.78352941176554 0  L 83.01176470588236 0  C 91.4051764705882 0  98 6.380000000000031  98 14.5  C 98 22.61999999999997  91.4051764705882 29  83.01176470588236 29  L 14.988235294117649 29  Z " stroke-width="4" stroke="#808080" fill="none" transform="matrix(1 0 0 1 794 496 )" mask="url(#clip2)" />
  </g>
</svg>